<svg width="32" height="32" viewBox="0 0 32 32" fill="none" xmlns="http://www.w3.org/2000/svg">
<rect x="1" y="5" width="30" height="23.0769" fill="#68D4FF"/>
<g opacity="0.4">
<rect x="2.15385" y="8.46155" width="20.1161" height="13.4107" fill="white"/>
<rect x="2.15385" y="8.46155" width="20.1161" height="1.67634" fill="#3E3E3E"/>
</g>
<g filter="url(#filter0_d_347_44)">
<rect x="9.0116" y="11.2046" width="20.1161" height="13.4107" fill="white"/>
<rect x="9.0116" y="11.2046" width="20.1161" height="1.67634" fill="#3E3E3E"/>
</g>
<g opacity="0.75" clip-path="url(#clip0_347_44)">
<path d="M7.37398 16.3372C7.7491 16.9087 8.21268 17.0881 8.78302 17.1336L8.78302 16.8051C8.78302 16.6831 8.83057 16.5683 8.91697 16.4819C9.08979 16.3091 9.39176 16.3102 9.56229 16.4808L11.0008 17.8996C11.0224 17.9209 11.0396 17.9463 11.0513 17.9742C11.063 18.0022 11.069 18.0322 11.069 18.0625C11.069 18.0928 11.063 18.1228 11.0513 18.1508C11.0396 18.1787 11.0224 18.2041 11.0008 18.2254L9.56343 19.6433C9.39107 19.8159 9.08956 19.8161 8.91674 19.6431C8.83057 19.5567 8.78302 19.4419 8.78302 19.3199L8.78302 18.9304C7.72715 18.7171 6.95428 17.7881 6.95428 16.6911L6.95428 16.4625C6.95415 16.4132 6.96996 16.3652 6.99934 16.3257C7.02873 16.2861 7.07012 16.2571 7.11733 16.243C7.16454 16.229 7.21504 16.2305 7.2613 16.2475C7.30755 16.2644 7.34708 16.2959 7.37398 16.3372ZM9.00635 17.6027C8.50185 17.5899 7.94614 17.5126 7.46153 17.1178C7.54899 17.4836 7.74731 17.8134 8.02935 18.0622C8.31139 18.311 8.66339 18.4666 9.03721 18.5077C9.15242 18.5205 9.2402 18.5196 9.2402 18.5196L9.2402 19.319L10.5148 18.0626L9.2402 16.8054L9.2402 17.6052L9.00635 17.6027Z" fill="black"/>
</g>
<g clip-path="url(#clip1_347_44)">
<path d="M18.6125 19.6053C18.6747 19.6052 18.7348 19.6277 18.7817 19.6685C18.8286 19.7094 18.8591 19.7659 18.8676 19.8275L18.87 19.8625V20.6127L19.1169 20.3665C19.1604 20.323 19.2181 20.2965 19.2795 20.2919C19.341 20.2873 19.402 20.3049 19.4515 20.3415L19.4803 20.3665C19.5238 20.4101 19.5502 20.4679 19.5548 20.5293C19.5593 20.5907 19.5416 20.6517 19.505 20.7012L19.4803 20.73L18.7945 21.4158L18.7815 21.4281L18.7568 21.447L18.7243 21.4658L18.6944 21.4778L18.6594 21.4867L18.6303 21.4905H18.595L18.5538 21.4843L18.5305 21.4775L18.5103 21.4699L18.4863 21.4579L18.4685 21.447L18.4578 21.4394C18.4484 21.432 18.4393 21.4241 18.4307 21.4158L17.745 20.73C17.6989 20.6841 17.672 20.6225 17.6696 20.5575C17.6671 20.4926 17.6894 20.4292 17.7318 20.3799C17.7742 20.3307 17.8337 20.2994 17.8983 20.2923C17.9629 20.2851 18.0278 20.3027 18.08 20.3415L18.1088 20.3665L18.3556 20.6131V19.8621C18.3557 19.8 18.3783 19.7401 18.4191 19.6933C18.46 19.6466 18.5163 19.6161 18.5778 19.6077L18.6125 19.6053ZM18.6125 17.0336C18.8853 17.0336 19.1469 17.142 19.3398 17.3349C19.5328 17.5278 19.6411 17.7895 19.6411 18.0623C19.6411 18.3351 19.5328 18.5968 19.3398 18.7897C19.1469 18.9826 18.8853 19.091 18.6125 19.091C18.3397 19.091 18.078 18.9826 17.8851 18.7897C17.6922 18.5968 17.5838 18.3351 17.5838 18.0623C17.5838 17.7895 17.6922 17.5278 17.8851 17.3349C18.078 17.142 18.3397 17.0336 18.6125 17.0336ZM20.9167 17.1948C20.9602 17.1512 21.018 17.1246 21.0795 17.12C21.141 17.1154 21.2021 17.1331 21.2517 17.1698L21.2805 17.1945L21.9663 17.8802L21.9786 17.8936L21.9975 17.9183L22.0163 17.9509L22.0283 17.9804L22.0372 18.0157L22.0407 18.0445V18.0798L22.0348 18.1209L22.028 18.1443L22.0204 18.1645L22.0084 18.1885L21.9975 18.2063L21.9879 18.2193L21.9663 18.244L21.2805 18.9298C21.2345 18.9754 21.1731 19.002 21.1084 19.0043C21.0437 19.0065 20.9805 18.9843 20.9315 18.9421C20.8825 18.8999 20.8512 18.8407 20.8438 18.7764C20.8365 18.7121 20.8537 18.6473 20.892 18.5952L20.9167 18.566L21.1632 18.3191H20.4126C20.3505 18.3192 20.2904 18.2968 20.2435 18.256C20.1966 18.2152 20.1661 18.1588 20.1575 18.0973L20.1558 18.0623C20.1558 18.0002 20.1783 17.9401 20.2192 17.8933C20.26 17.8465 20.3164 17.816 20.378 17.8075L20.413 17.8051H21.1636L20.9167 17.5583C20.8732 17.5147 20.8468 17.4569 20.8422 17.3955C20.8377 17.3341 20.8554 17.2731 20.892 17.2236L20.9167 17.1948ZM15.9448 17.1948C15.9906 17.1487 16.0522 17.1216 16.1172 17.1191C16.1822 17.1165 16.2457 17.1387 16.295 17.1811C16.3443 17.2235 16.3757 17.2831 16.3828 17.3477C16.39 17.4123 16.3724 17.4773 16.3336 17.5295L16.3086 17.5583L16.0617 17.8051H16.8126C16.8748 17.8051 16.9348 17.8276 16.9817 17.8685C17.0285 17.9093 17.059 17.9658 17.0674 18.0273L17.0695 18.0623C17.0695 18.1245 17.0469 18.1846 17.006 18.2314C16.9651 18.2783 16.9086 18.3087 16.8469 18.3171L16.8123 18.3195H16.0614L16.3083 18.5664C16.3518 18.6099 16.3783 18.6676 16.3829 18.729C16.3875 18.7904 16.3699 18.8515 16.3333 18.901L16.3083 18.9298C16.2647 18.9735 16.2069 19 16.1454 19.0046C16.0839 19.0092 16.0228 18.9915 15.9733 18.9548L15.9445 18.9298L15.2587 18.244L15.2278 18.2063L15.209 18.1737L15.1966 18.1443L15.1877 18.1089L15.1839 18.0781V18.0462L15.1901 18.0033L15.197 17.9804L15.2045 17.9598L15.2165 17.9358L15.2275 17.9179L15.2354 17.9077C15.2426 17.8981 15.2504 17.889 15.2587 17.8802L15.9448 17.1948ZM18.6125 17.548C18.4761 17.548 18.3452 17.6022 18.2488 17.6986C18.1523 17.7951 18.0981 17.9259 18.0981 18.0623C18.0981 18.1987 18.1523 18.3295 18.2488 18.426C18.3452 18.5224 18.4761 18.5766 18.6125 18.5766C18.7489 18.5766 18.8797 18.5224 18.9762 18.426C19.0726 18.3295 19.1268 18.1987 19.1268 18.0623C19.1268 17.9259 19.0726 17.7951 18.9762 17.6986C18.8797 17.6022 18.7489 17.548 18.6125 17.548ZM18.5658 14.6375L18.5888 14.6345L18.6186 14.6334L18.6392 14.6348L18.6714 14.6403L18.6948 14.6468L18.715 14.6543L18.739 14.6667L18.7568 14.6777L18.7699 14.6869L18.7945 14.7085L19.4803 15.3943C19.5269 15.44 19.5544 15.5018 19.5571 15.5671C19.5598 15.6323 19.5376 15.6962 19.495 15.7457C19.4524 15.7951 19.3925 15.8265 19.3276 15.8335C19.2626 15.8405 19.1975 15.8224 19.1453 15.7831L19.1165 15.7581L18.8696 15.5112V16.2621C18.8696 16.3243 18.8471 16.3843 18.8063 16.4312C18.7654 16.478 18.709 16.5085 18.6474 16.5169L18.6128 16.5193C18.5506 16.5194 18.4905 16.4969 18.4436 16.4561C18.3967 16.4152 18.3662 16.3587 18.3577 16.2971L18.3556 16.2621V15.5112L18.1088 15.7581C18.0652 15.8017 18.0074 15.8283 17.9459 15.8329C17.8844 15.8375 17.8233 15.8198 17.7738 15.7831L17.745 15.7581C17.7015 15.7145 17.675 15.6568 17.6705 15.5953C17.666 15.5339 17.6836 15.4729 17.7203 15.4234L17.745 15.3943L18.4307 14.7085L18.4685 14.6777L18.501 14.6588L18.5309 14.6468L18.5658 14.6375Z" fill="black"/>
</g>
<g clip-path="url(#clip2_347_44)">
<path d="M21.0132 20.2049C21.0132 20.1572 21.0265 20.1103 21.0516 20.0697C21.0767 20.0291 21.1127 19.9963 21.1554 19.9749C21.1981 19.9535 21.2459 19.9445 21.2935 19.9488C21.341 19.9531 21.3865 19.9705 21.4247 19.9992L23.4815 21.5427C23.679 21.6908 23.5741 22.0056 23.3272 22.0056H22.3122C22.2728 22.0056 22.2339 22.0146 22.1985 22.032C22.1632 22.0494 22.1323 22.0747 22.1082 22.1059L21.4741 22.9327C21.3246 23.1276 21.013 23.0219 21.013 22.7761L21.0132 20.2049Z" fill="black"/>
</g>
<defs>
<filter id="filter0_d_347_44" x="9.0116" y="11.2046" width="22.4238" height="15.7185" filterUnits="userSpaceOnUse" color-interpolation-filters="sRGB">
<feFlood flood-opacity="0" result="BackgroundImageFix"/>
<feColorMatrix in="SourceAlpha" type="matrix" values="0 0 0 0 0 0 0 0 0 0 0 0 0 0 0 0 0 0 127 0" result="hardAlpha"/>
<feOffset dx="1.15385" dy="1.15385"/>
<feGaussianBlur stdDeviation="0.576923"/>
<feComposite in2="hardAlpha" operator="out"/>
<feColorMatrix type="matrix" values="0 0 0 0 0 0 0 0 0 0 0 0 0 0 0 0 0 0 0.25 0"/>
<feBlend mode="normal" in2="BackgroundImageFix" result="effect1_dropShadow_347_44"/>
<feBlend mode="normal" in="SourceGraphic" in2="effect1_dropShadow_347_44" result="shape"/>
</filter>
<clipPath id="clip0_347_44">
<rect width="5.48621" height="5.48621" fill="white" transform="translate(11.7547 20.8054) rotate(-180)"/>
</clipPath>
<clipPath id="clip1_347_44">
<rect width="8.22932" height="8.22932" fill="white" transform="translate(14.4978 13.9479)"/>
</clipPath>
<clipPath id="clip2_347_44">
<rect width="4.11466" height="4.11466" fill="white" transform="translate(19.984 19.434)"/>
</clipPath>
</defs>
</svg>
