<svg width="32" height="32" viewBox="0 0 32 32" fill="none" xmlns="http://www.w3.org/2000/svg">
<g clip-path="url(#clip0_350_50)">
<g opacity="0.5">
<rect x="1.13344" y="3.05392" width="27.0135" height="22.1779" fill="white" stroke="black" stroke-width="0.107835"/>
<rect x="1.13344" y="3.05392" width="27.0135" height="2.67788" fill="#3E3E3E" stroke="black" stroke-width="0.107835"/>
</g>
<g filter="url(#filter0_d_350_50)">
<rect x="2.7445" y="7.46835" width="28.0919" height="21.4777" fill="white" stroke="black" stroke-width="0.107835"/>
<rect x="2.7445" y="7.46835" width="28.0919" height="2.59036" fill="#3E3E3E" stroke="black" stroke-width="0.107835"/>
</g>
<g opacity="0.75">
<path d="M2.54967 16.378C3.07553 17.1791 3.7254 17.4307 4.52493 17.4944L4.52493 17.034C4.52493 16.8628 4.59158 16.702 4.71271 16.5808C4.95498 16.3386 5.37829 16.3402 5.61735 16.5792L7.63395 18.5683C7.66422 18.5981 7.68827 18.6336 7.70468 18.6728C7.72109 18.712 7.72955 18.7541 7.72955 18.7966C7.72955 18.8391 7.72109 18.8812 7.70468 18.9204C7.68827 18.9596 7.66422 18.9951 7.63395 19.0249L5.61895 21.0127C5.37733 21.2546 4.95465 21.2549 4.71239 21.0124C4.59158 20.8912 4.52493 20.7304 4.52493 20.5592L4.52493 20.0132C3.04477 19.7142 1.96132 18.4119 1.96132 16.8741L1.96132 16.5536C1.96114 16.4845 1.9833 16.4173 2.02449 16.3618C2.06569 16.3064 2.12371 16.2658 2.18989 16.246C2.25607 16.2262 2.32687 16.2284 2.39171 16.2522C2.45655 16.276 2.51196 16.3201 2.54967 16.378ZM4.83801 18.152C4.13077 18.1341 3.35176 18.0258 2.6724 17.4723C2.79502 17.9851 3.07302 18.4474 3.4684 18.7962C3.86378 19.1449 4.35723 19.363 4.88127 19.4207C5.04278 19.4386 5.16583 19.4373 5.16583 19.4373L5.16583 20.558L6.95267 18.7968L5.16583 17.0343L5.16583 18.1555L4.83801 18.152Z" fill="black"/>
</g>
<path d="M17.3877 22.5323C17.5145 22.5322 17.637 22.578 17.7326 22.6613C17.8283 22.7445 17.8904 22.8597 17.9077 22.9853L17.9126 23.0566V24.5859L18.4158 24.0841C18.5046 23.9953 18.6223 23.9413 18.7475 23.9319C18.8727 23.9226 18.9971 23.9585 19.098 24.033L19.1568 24.0841C19.2454 24.1729 19.2993 24.2906 19.3085 24.4158C19.3178 24.541 19.2818 24.6654 19.2071 24.7663L19.1568 24.825L17.7588 26.2229L17.7322 26.2481L17.6819 26.2865L17.6155 26.325L17.5547 26.3494L17.4834 26.3676L17.424 26.3753H17.352L17.2681 26.3627L17.2206 26.3487L17.1794 26.3334L17.1304 26.3089L17.0941 26.2865L17.0724 26.2712C17.0532 26.2561 17.0347 26.24 17.0172 26.2229L15.6192 24.825C15.5255 24.7314 15.4705 24.6059 15.4656 24.4735C15.4606 24.3411 15.5059 24.2118 15.5924 24.1114C15.6789 24.0111 15.8002 23.9473 15.9319 23.9327C16.0635 23.9182 16.1958 23.954 16.3021 24.033L16.3609 24.0841L16.8641 24.5866V23.0559C16.8643 22.9293 16.9102 22.8071 16.9935 22.7118C17.0767 22.6164 17.1917 22.5545 17.3171 22.5372L17.3877 22.5323ZM17.3877 17.29C17.9438 17.29 18.4772 17.511 18.8704 17.9042C19.2637 18.2975 19.4846 18.8308 19.4846 19.387C19.4846 19.9431 19.2637 20.4765 18.8704 20.8697C18.4772 21.263 17.9438 21.4839 17.3877 21.4839C16.8315 21.4839 16.2982 21.263 15.9049 20.8697C15.5117 20.4765 15.2907 19.9431 15.2907 19.387C15.2907 18.8308 15.5117 18.2975 15.9049 17.9042C16.2982 17.511 16.8315 17.29 17.3877 17.29ZM22.0848 17.6186C22.1736 17.5296 22.2914 17.4755 22.4167 17.4661C22.5421 17.4568 22.6666 17.4928 22.7677 17.5675L22.8264 17.6179L24.2243 19.0158L24.2495 19.0431L24.2879 19.0934L24.3264 19.1598L24.3508 19.2199L24.369 19.2919L24.376 19.3506V19.4226L24.3641 19.5065L24.3501 19.554L24.3348 19.5953L24.3103 19.6442L24.2879 19.6805L24.2684 19.7071L24.2243 19.7574L22.8264 21.1554C22.7327 21.2483 22.6075 21.3025 22.4756 21.3071C22.3437 21.3118 22.215 21.2665 22.115 21.1804C22.015 21.0943 21.9512 20.9737 21.9363 20.8426C21.9213 20.7115 21.9564 20.5796 22.0344 20.4732L22.0848 20.4138L22.5873 19.9105H21.0573C20.9306 19.9107 20.8081 19.865 20.7125 19.7818C20.6169 19.6987 20.5546 19.5838 20.5372 19.4583L20.5337 19.387C20.5337 19.2603 20.5796 19.1379 20.6629 19.0424C20.7462 18.9469 20.8612 18.8849 20.9867 18.8676L21.058 18.8627H22.588L22.0848 18.3595C21.9961 18.2706 21.9422 18.1529 21.933 18.0277C21.9238 17.9025 21.9598 17.7782 22.0344 17.6773L22.0848 17.6186ZM11.9496 17.6186C12.0431 17.5245 12.1686 17.4694 12.3011 17.4642C12.4335 17.459 12.563 17.5042 12.6635 17.5907C12.764 17.6772 12.828 17.7985 12.8426 17.9302C12.8572 18.062 12.8213 18.1944 12.7423 18.3008L12.6912 18.3595L12.188 18.8627H13.7187C13.8454 18.8627 13.9678 18.9086 14.0633 18.9919C14.1588 19.0751 14.2208 19.1902 14.2381 19.3157L14.2423 19.387C14.2422 19.5137 14.1963 19.6362 14.1129 19.7317C14.0294 19.8272 13.9143 19.8892 13.7886 19.9063L13.718 19.9112H12.1873L12.6905 20.4145C12.7793 20.5032 12.8333 20.6209 12.8427 20.7461C12.852 20.8713 12.8162 20.9957 12.7416 21.0967L12.6905 21.1554C12.6017 21.2443 12.4839 21.2984 12.3586 21.3078C12.2332 21.3172 12.1087 21.2812 12.0076 21.2064L11.9489 21.1554L10.551 19.7574L10.4881 19.6805L10.4496 19.6141L10.4245 19.554L10.4063 19.482L10.3986 19.4191V19.3541L10.4112 19.2667L10.4252 19.2199L10.4405 19.178L10.465 19.129L10.4874 19.0927L10.5035 19.0717C10.5183 19.0523 10.5342 19.0336 10.551 19.0158L11.9496 17.6186ZM17.3877 18.3385C17.1096 18.3385 16.8429 18.449 16.6463 18.6456C16.4497 18.8422 16.3392 19.1089 16.3392 19.387C16.3392 19.665 16.4497 19.9317 16.6463 20.1283C16.8429 20.325 17.1096 20.4354 17.3877 20.4354C17.6657 20.4354 17.9324 20.325 18.129 20.1283C18.3257 19.9317 18.4361 19.665 18.4361 19.387C18.4361 19.1089 18.3257 18.8422 18.129 18.6456C17.9324 18.449 17.6657 18.3385 17.3877 18.3385ZM17.2926 12.4056L17.3394 12.3993L17.4002 12.3972L17.4422 12.4L17.5079 12.4112L17.5554 12.4245L17.5966 12.4399L17.6456 12.465L17.6819 12.4874L17.7085 12.5063L17.7588 12.5503L19.1568 13.9482C19.2518 14.0415 19.3077 14.1674 19.3133 14.3005C19.3188 14.4335 19.2735 14.5636 19.1866 14.6645C19.0997 14.7653 18.9777 14.8294 18.8454 14.8436C18.713 14.8577 18.5802 14.821 18.4739 14.7409L18.4151 14.6899L17.9119 14.1866V15.7173C17.9119 15.844 17.866 15.9664 17.7827 16.0619C17.6995 16.1574 17.5845 16.2195 17.4589 16.2367L17.3884 16.2416C17.2616 16.2417 17.139 16.1959 17.0434 16.1127C16.9478 16.0294 16.8856 15.9143 16.8683 15.7886L16.8641 15.7173V14.1866L16.3609 14.6899C16.2721 14.7788 16.1542 14.8329 16.0289 14.8423C15.9035 14.8516 15.779 14.8157 15.678 14.7409L15.6192 14.6899C15.5306 14.601 15.4767 14.4833 15.4675 14.3581C15.4582 14.2329 15.4942 14.1086 15.5689 14.0077L15.6192 13.9482L17.0172 12.5503L17.0941 12.4874L17.1605 12.4489L17.2213 12.4245L17.2926 12.4056Z" fill="black"/>
<path d="M21.7317 22.9685C21.7317 22.8946 21.7523 22.8222 21.7911 22.7593C21.83 22.6964 21.8856 22.6456 21.9517 22.6126C22.0178 22.5795 22.0918 22.5655 22.1654 22.5722C22.239 22.5788 22.3093 22.6058 22.3684 22.6501L25.5513 25.0387C25.8569 25.2679 25.6946 25.755 25.3125 25.755H23.7418C23.6808 25.755 23.6206 25.769 23.5659 25.7959C23.5112 25.8228 23.4634 25.8619 23.4262 25.9102L22.4448 27.1897C22.2136 27.4913 21.7313 27.3278 21.7313 26.9473L21.7317 22.9685Z" fill="black"/>
</g>
<defs>
<filter id="filter0_d_350_50" x="2.69058" y="7.41443" width="31.4347" height="24.8206" filterUnits="userSpaceOnUse" color-interpolation-filters="sRGB">
<feFlood flood-opacity="0" result="BackgroundImageFix"/>
<feColorMatrix in="SourceAlpha" type="matrix" values="0 0 0 0 0 0 0 0 0 0 0 0 0 0 0 0 0 0 127 0" result="hardAlpha"/>
<feOffset dx="1.61751" dy="1.61751"/>
<feGaussianBlur stdDeviation="0.808757"/>
<feComposite in2="hardAlpha" operator="out"/>
<feColorMatrix type="matrix" values="0 0 0 0 0 0 0 0 0 0 0 0 0 0 0 0 0 0 0.25 0"/>
<feBlend mode="normal" in2="BackgroundImageFix" result="effect1_dropShadow_350_50"/>
<feBlend mode="normal" in="SourceGraphic" in2="effect1_dropShadow_350_50" result="shape"/>
</filter>
<clipPath id="clip0_350_50">
<rect width="32" height="32" fill="white"/>
</clipPath>
</defs>
</svg>
